<svg xmlns="http://www.w3.org/2000/svg" xmlns:xlink="http://www.w3.org/1999/xlink" width="160" zoomAndPan="magnify" viewBox="0 0 120 135.000003" height="180" preserveAspectRatio="xMidYMid meet" version="1.0"><path fill="#474747" d="M 114 87.78125 C 112.476562 80.835938 106.382812 76.207031 102.195312 73.5625 C 104.863281 69.265625 109.429688 61.328125 107.527344 57.691406 C 107.148438 56.367188 106.382812 56.035156 105.242188 56.035156 C 104.101562 56.035156 102.195312 56.699219 99.910156 57.359375 C 100.292969 56.035156 101.433594 50.746094 101.054688 44.792969 C 101.054688 44.792969 105.242188 44.132812 109.8125 47.4375 C 109.8125 32.558594 97.246094 23.632812 97.246094 23.632812 C 97.246094 23.632812 103.71875 21.648438 107.910156 22.96875 C 94.578125 5.113281 72.109375 10.074219 72.109375 10.074219 C 72.109375 10.074219 71.730469 5.113281 77.0625 2.800781 C 29.457031 2.800781 27.933594 31.898438 27.933594 31.898438 C 27.933594 31.898438 24.128906 28.589844 22.222656 23.960938 C 17.273438 33.882812 21.082031 55.707031 21.460938 57.027344 C 19.558594 56.367188 17.652344 55.707031 16.128906 55.707031 C 14.605469 55.707031 14.226562 56.367188 13.84375 57.691406 C 11.941406 61.328125 16.511719 69.265625 19.175781 73.5625 C 14.988281 76.207031 8.894531 80.507812 7.371094 87.78125 C 7.371094 87.78125 11.558594 86.789062 15.367188 86.457031 C 12.703125 95.054688 10.796875 106.628906 16.511719 114.566406 C 18.035156 112.25 21.84375 109.273438 21.84375 109.273438 C 24.128906 112.582031 37.074219 122.171875 50.785156 125.808594 C 54.59375 127.792969 57.257812 128.785156 57.640625 128.785156 L 60.6875 129.777344 L 63.734375 128.785156 C 64.113281 128.785156 66.777344 127.792969 70.585938 125.808594 C 84.296875 122.171875 97.246094 112.582031 99.53125 109.273438 C 99.53125 109.273438 103.339844 112.582031 104.863281 114.566406 C 110.574219 106.628906 108.667969 95.054688 106.003906 86.457031 C 109.8125 86.789062 114 87.78125 114 87.78125 Z M 114 87.78125 " fill-opacity="1" fill-rule="nonzero"/><path fill="#8c8c8c" d="M 90.011719 67.941406 C 90.011719 59.34375 79.347656 56.367188 72.492188 60.003906 C 69.066406 61.988281 65.636719 64.304688 60.6875 64.304688 C 55.734375 64.304688 52.691406 61.988281 48.882812 60.003906 C 42.027344 56.367188 31.363281 59.34375 31.363281 67.941406 C 31.363281 76.539062 42.027344 82.820312 40.882812 82.820312 C 25.269531 109.605469 60.6875 122.171875 60.6875 122.171875 C 60.6875 122.171875 96.101562 109.605469 80.488281 82.820312 C 79.726562 82.820312 90.011719 76.207031 90.011719 67.941406 Z M 90.011719 67.941406 " fill-opacity="1" fill-rule="evenodd"/><path fill="#bec0b5" d="M 60.6875 132.421875 L 56.496094 130.769531 C 56.117188 130.769531 53.449219 129.777344 49.644531 127.792969 C 37.835938 124.484375 26.792969 117.542969 21.84375 112.914062 C 20.699219 113.90625 19.9375 114.894531 19.175781 115.558594 L 16.890625 119.527344 L 14.226562 115.886719 C 8.515625 108.28125 9.273438 98.03125 11.179688 89.433594 C 9.273438 89.765625 8.132812 90.097656 8.132812 90.097656 L 3.5625 91.089844 L 4.324219 87.121094 C 5.847656 80.507812 10.796875 75.546875 15.367188 72.570312 C 9.65625 62.648438 10.035156 58.683594 10.796875 56.699219 C 11.558594 54.054688 14.226562 52.730469 17.652344 53.390625 C 16.890625 46.117188 15.367188 31.238281 19.558594 23.300781 L 22.222656 17.679688 L 24.890625 23.300781 C 25.269531 24.292969 26.03125 24.953125 26.414062 25.945312 C 29.839844 16.6875 40.882812 0.152344 76.679688 0.152344 L 88.105469 0.152344 L 77.824219 5.113281 C 76.679688 5.773438 75.917969 6.4375 75.15625 7.097656 C 83.15625 6.765625 99.148438 7.757812 109.433594 21.648438 L 114 27.929688 L 105.625 25.285156 C 104.863281 24.953125 103.339844 24.953125 101.816406 24.953125 C 106.003906 28.921875 111.335938 36.527344 111.335938 47.109375 L 111.335938 52.398438 L 106.386719 48.761719 C 104.863281 47.769531 103.71875 47.4375 102.578125 47.109375 C 102.578125 49.421875 102.578125 51.40625 102.195312 53.0625 C 105.625 52.398438 107.910156 53.722656 109.050781 56.367188 C 110.195312 58.351562 110.574219 62.320312 104.863281 72.238281 C 109.433594 75.214844 114.382812 79.84375 115.90625 86.789062 L 116.667969 90.757812 L 112.097656 89.765625 C 112.097656 89.765625 110.953125 89.433594 109.050781 89.105469 C 110.953125 97.371094 111.714844 107.953125 106.386719 115.226562 L 103.71875 118.863281 L 101.433594 114.894531 C 101.054688 114.234375 99.910156 113.242188 99.148438 112.25 C 94.199219 116.878906 83.15625 124.15625 70.96875 127.132812 C 67.160156 129.113281 64.496094 130.105469 64.113281 130.105469 Z M 22.605469 104.644531 L 24.507812 107.621094 C 26.414062 110.265625 38.597656 119.527344 51.925781 123.164062 L 52.6875 123.492188 C 56.117188 125.476562 58.78125 126.46875 59.164062 126.46875 L 61.066406 127.132812 L 62.972656 126.46875 C 62.972656 126.46875 65.636719 125.476562 69.445312 123.492188 L 70.207031 123.164062 C 83.535156 119.855469 95.722656 110.265625 97.625 107.621094 L 99.53125 104.644531 L 102.195312 106.960938 C 102.578125 107.289062 103.71875 107.953125 104.863281 109.273438 C 107.527344 102.332031 106.003906 93.402344 103.71875 86.789062 L 102.578125 83.152344 L 107.148438 83.8125 C 107.910156 83.8125 109.050781 84.144531 110.195312 84.144531 C 107.910156 80.175781 104.101562 77.53125 101.054688 75.878906 L 98.769531 74.554688 L 99.910156 72.570312 C 106.386719 61.988281 105.242188 59.34375 105.242188 59.011719 C 104.101562 59.34375 102.578125 59.675781 101.433594 60.003906 L 94.960938 61.65625 L 96.863281 56.699219 C 97.246094 55.707031 98.386719 50.746094 98.007812 44.792969 L 98.007812 42.480469 L 100.671875 42.148438 C 101.054688 42.148438 103.339844 41.816406 106.386719 42.808594 C 104.480469 32.226562 95.339844 25.945312 95.339844 25.613281 L 91.152344 22.640625 L 96.484375 21.316406 C 96.863281 21.316406 99.148438 20.65625 101.816406 20.324219 C 90.007812 9.082031 73.632812 12.386719 72.871094 12.71875 L 69.445312 13.378906 L 69.445312 10.402344 C 69.445312 10.402344 69.445312 8.089844 70.585938 5.773438 C 32.503906 8.089844 30.980469 31.238281 30.980469 32.226562 L 30.601562 38.179688 L 25.652344 33.882812 C 25.652344 33.882812 24.507812 32.890625 22.984375 31.238281 C 21.460938 41.488281 23.746094 55.707031 24.128906 57.027344 L 25.652344 61.988281 L 20.320312 59.675781 C 19.175781 59.34375 17.652344 58.683594 16.511719 58.683594 C 16.511719 59.011719 15.367188 61.65625 21.84375 72.238281 L 22.984375 74.222656 L 20.699219 75.546875 C 17.652344 77.199219 13.84375 80.175781 11.558594 83.8125 C 12.320312 83.8125 13.464844 83.484375 14.605469 83.484375 L 19.175781 82.820312 L 18.035156 86.457031 C 15.75 93.070312 14.226562 102 16.890625 108.945312 C 18.035156 107.621094 19.175781 106.628906 19.558594 106.628906 Z M 22.605469 104.644531 " fill-opacity="1" fill-rule="nonzero"/></svg>