<svg xmlns="http://www.w3.org/2000/svg" xmlns:xlink="http://www.w3.org/1999/xlink" width="1080" zoomAndPan="magnify" viewBox="0 0 810 809.999993" height="1080" preserveAspectRatio="xMidYMid meet" version="1.0"><defs><clipPath id="652447505b"><path d="M 0 0 L 810 0 L 810 232.46875 L 0 232.46875 Z M 0 0 " clip-rule="nonzero"/></clipPath><clipPath id="8cb5e84c19"><path d="M 0 577.53125 L 810 577.53125 L 810 810 L 0 810 Z M 0 577.53125 " clip-rule="nonzero"/></clipPath><clipPath id="58395a113d"><path d="M 0 288.765625 L 810 288.765625 L 810 521.234375 L 0 521.234375 Z M 0 288.765625 " clip-rule="nonzero"/></clipPath></defs><rect x="-81" width="972" fill="#ffffff" y="-80.999999" height="971.999992" fill-opacity="1"/><rect x="-81" width="972" fill="#ffffff" y="-80.999999" height="971.999992" fill-opacity="1"/><g clip-path="url(#652447505b)"><path fill="#404040" d="M 0 0 L 810.011719 0 L 810.011719 232.46875 L 0 232.46875 Z M 0 0 " fill-opacity="1" fill-rule="nonzero"/></g><g clip-path="url(#8cb5e84c19)"><path fill="#404040" d="M 0 577.53125 L 810.011719 577.53125 L 810.011719 810 L 0 810 Z M 0 577.53125 " fill-opacity="1" fill-rule="nonzero"/></g><g clip-path="url(#58395a113d)"><path fill="#404040" d="M 0 288.765625 L 810.011719 288.765625 L 810.011719 521.234375 L 0 521.234375 Z M 0 288.765625 " fill-opacity="1" fill-rule="nonzero"/></g></svg>