<svg xmlns="http://www.w3.org/2000/svg" xmlns:xlink="http://www.w3.org/1999/xlink" width="90" zoomAndPan="magnify" viewBox="0 0 67.5 48" height="64" preserveAspectRatio="xMidYMid meet" version="1.0"><defs><clipPath id="55c9938438"><path d="M 0.445312 0 L 66.566406 0 L 66.566406 47.019531 L 0.445312 47.019531 Z M 0.445312 0 " clip-rule="nonzero"/></clipPath></defs><g clip-path="url(#55c9938438)"><path fill="#ffffff" d="M 3.640625 -0.34375 L 63.367188 -0.34375 C 63.761719 -0.34375 64.140625 -0.269531 64.507812 -0.117188 C 64.875 0.0351562 65.195312 0.25 65.476562 0.53125 C 65.757812 0.808594 65.972656 1.132812 66.125 1.5 C 66.277344 1.863281 66.351562 2.246094 66.351562 2.640625 L 66.351562 44.425781 C 66.351562 44.820312 66.277344 45.203125 66.125 45.566406 C 65.972656 45.933594 65.757812 46.253906 65.476562 46.535156 C 65.195312 46.816406 64.875 47.03125 64.507812 47.183594 C 64.140625 47.335938 63.761719 47.410156 63.367188 47.410156 L 3.640625 47.410156 C 3.246094 47.410156 2.863281 47.335938 2.5 47.183594 C 2.132812 47.03125 1.808594 46.816406 1.53125 46.535156 C 1.25 46.253906 1.035156 45.933594 0.882812 45.566406 C 0.730469 45.203125 0.65625 44.820312 0.65625 44.425781 L 0.65625 2.640625 C 0.65625 2.246094 0.730469 1.863281 0.882812 1.5 C 1.035156 1.132812 1.25 0.808594 1.53125 0.53125 C 1.808594 0.25 2.132812 0.0351562 2.5 -0.117188 C 2.863281 -0.269531 3.246094 -0.34375 3.640625 -0.34375 Z M 3.640625 -0.34375 " fill-opacity="1" fill-rule="nonzero"/></g><path fill="#231f20" d="M 13.679688 7.117188 C 13.917969 7.117188 14.144531 7.164062 14.363281 7.253906 C 14.582031 7.34375 14.777344 7.472656 14.945312 7.640625 C 15.113281 7.808594 15.242188 8.003906 15.332031 8.222656 C 15.425781 8.441406 15.46875 8.671875 15.46875 8.910156 L 15.46875 38.15625 C 15.46875 38.394531 15.425781 38.625 15.332031 38.84375 C 15.242188 39.0625 15.113281 39.257812 14.945312 39.421875 C 14.777344 39.589844 14.582031 39.722656 14.363281 39.8125 C 14.144531 39.902344 13.917969 39.949219 13.679688 39.949219 C 13.441406 39.949219 13.210938 39.902344 12.992188 39.8125 C 12.773438 39.722656 12.578125 39.589844 12.410156 39.421875 C 12.242188 39.257812 12.113281 39.0625 12.023438 38.84375 C 11.933594 38.625 11.886719 38.394531 11.886719 38.15625 L 11.886719 8.910156 C 11.886719 8.671875 11.933594 8.441406 12.023438 8.222656 C 12.113281 8.003906 12.242188 7.808594 12.410156 7.640625 C 12.578125 7.472656 12.773438 7.34375 12.992188 7.253906 C 13.210938 7.164062 13.441406 7.117188 13.679688 7.117188 Z M 13.679688 7.117188 " fill-opacity="1" fill-rule="nonzero"/><path fill="#231f20" d="M 55.21875 7.117188 C 55.457031 7.117188 55.683594 7.164062 55.902344 7.253906 C 56.121094 7.34375 56.316406 7.472656 56.484375 7.640625 C 56.652344 7.808594 56.78125 8.003906 56.875 8.222656 C 56.964844 8.441406 57.007812 8.671875 57.007812 8.910156 L 57.007812 38.15625 C 57.007812 38.394531 56.964844 38.625 56.875 38.84375 C 56.78125 39.0625 56.652344 39.257812 56.484375 39.421875 C 56.316406 39.589844 56.121094 39.722656 55.902344 39.8125 C 55.683594 39.902344 55.457031 39.949219 55.21875 39.949219 C 54.980469 39.949219 54.75 39.902344 54.53125 39.8125 C 54.3125 39.722656 54.117188 39.589844 53.949219 39.421875 C 53.78125 39.257812 53.652344 39.0625 53.5625 38.84375 C 53.472656 38.625 53.425781 38.394531 53.425781 38.15625 L 53.425781 8.910156 C 53.425781 8.671875 53.472656 8.441406 53.5625 8.222656 C 53.652344 8.003906 53.78125 7.808594 53.949219 7.640625 C 54.117188 7.472656 54.3125 7.34375 54.53125 7.253906 C 54.75 7.164062 54.980469 7.117188 55.21875 7.117188 Z M 55.21875 7.117188 " fill-opacity="1" fill-rule="nonzero"/><path fill="#231f20" d="M 31.550781 7.117188 C 31.789062 7.117188 32.015625 7.164062 32.238281 7.253906 C 32.457031 7.34375 32.648438 7.472656 32.816406 7.640625 C 32.984375 7.808594 33.117188 8.003906 33.207031 8.222656 C 33.296875 8.441406 33.34375 8.671875 33.34375 8.910156 L 33.34375 32.1875 C 33.34375 32.425781 33.296875 32.652344 33.207031 32.875 C 33.117188 33.09375 32.984375 33.285156 32.816406 33.453125 C 32.648438 33.621094 32.457031 33.75 32.238281 33.84375 C 32.015625 33.933594 31.789062 33.980469 31.550781 33.980469 C 31.3125 33.980469 31.085938 33.933594 30.863281 33.84375 C 30.644531 33.75 30.453125 33.621094 30.285156 33.453125 C 30.117188 33.285156 29.988281 33.09375 29.894531 32.875 C 29.804688 32.652344 29.757812 32.425781 29.757812 32.1875 L 29.757812 8.910156 C 29.757812 8.671875 29.804688 8.441406 29.894531 8.222656 C 29.988281 8.003906 30.117188 7.808594 30.285156 7.640625 C 30.453125 7.472656 30.644531 7.34375 30.863281 7.253906 C 31.085938 7.164062 31.3125 7.117188 31.550781 7.117188 Z M 31.550781 7.117188 " fill-opacity="1" fill-rule="nonzero"/><path fill="#231f20" d="M 19.605469 7.117188 C 19.84375 7.117188 20.074219 7.164062 20.292969 7.253906 C 20.511719 7.34375 20.707031 7.472656 20.875 7.640625 C 21.042969 7.808594 21.171875 8.003906 21.261719 8.222656 C 21.351562 8.441406 21.398438 8.671875 21.398438 8.910156 L 21.398438 32.1875 C 21.398438 32.425781 21.351562 32.652344 21.261719 32.875 C 21.171875 33.09375 21.042969 33.285156 20.875 33.453125 C 20.707031 33.621094 20.511719 33.75 20.292969 33.84375 C 20.074219 33.933594 19.84375 33.980469 19.605469 33.980469 C 19.367188 33.980469 19.140625 33.933594 18.921875 33.84375 C 18.699219 33.75 18.507812 33.621094 18.339844 33.453125 C 18.171875 33.285156 18.042969 33.09375 17.949219 32.875 C 17.859375 32.652344 17.816406 32.425781 17.816406 32.1875 L 17.816406 8.910156 C 17.816406 8.671875 17.859375 8.441406 17.949219 8.222656 C 18.042969 8.003906 18.171875 7.808594 18.339844 7.640625 C 18.507812 7.472656 18.699219 7.34375 18.921875 7.253906 C 19.140625 7.164062 19.367188 7.117188 19.605469 7.117188 Z M 19.605469 7.117188 " fill-opacity="1" fill-rule="nonzero"/><path fill="#231f20" d="M 25.578125 7.117188 C 25.816406 7.117188 26.042969 7.164062 26.265625 7.253906 C 26.484375 7.34375 26.675781 7.472656 26.84375 7.640625 C 27.011719 7.808594 27.144531 8.003906 27.234375 8.222656 C 27.324219 8.441406 27.371094 8.671875 27.371094 8.910156 L 27.371094 32.1875 C 27.371094 32.425781 27.324219 32.652344 27.234375 32.875 C 27.144531 33.09375 27.011719 33.285156 26.84375 33.453125 C 26.675781 33.621094 26.484375 33.75 26.265625 33.84375 C 26.042969 33.933594 25.816406 33.980469 25.578125 33.980469 C 25.339844 33.980469 25.113281 33.933594 24.894531 33.84375 C 24.671875 33.75 24.480469 33.621094 24.3125 33.453125 C 24.144531 33.285156 24.015625 33.09375 23.921875 32.875 C 23.832031 32.652344 23.785156 32.425781 23.785156 32.1875 L 23.785156 8.910156 C 23.785156 8.671875 23.832031 8.441406 23.921875 8.222656 C 24.015625 8.003906 24.144531 7.808594 24.3125 7.640625 C 24.480469 7.472656 24.671875 7.34375 24.894531 7.253906 C 25.113281 7.164062 25.339844 7.117188 25.578125 7.117188 Z M 25.578125 7.117188 " fill-opacity="1" fill-rule="nonzero"/><path fill="#231f20" d="M 43.496094 7.117188 C 43.734375 7.117188 43.960938 7.164062 44.179688 7.253906 C 44.402344 7.34375 44.59375 7.472656 44.761719 7.640625 C 44.929688 7.808594 45.058594 8.003906 45.152344 8.222656 C 45.242188 8.441406 45.289062 8.671875 45.289062 8.910156 L 45.289062 32.1875 C 45.289062 32.425781 45.242188 32.652344 45.152344 32.875 C 45.058594 33.09375 44.929688 33.285156 44.761719 33.453125 C 44.59375 33.621094 44.402344 33.75 44.179688 33.84375 C 43.960938 33.933594 43.734375 33.980469 43.496094 33.980469 C 43.257812 33.980469 43.03125 33.933594 42.808594 33.84375 C 42.589844 33.75 42.398438 33.621094 42.230469 33.453125 C 42.0625 33.285156 41.929688 33.09375 41.839844 32.875 C 41.75 32.652344 41.703125 32.425781 41.703125 32.1875 L 41.703125 8.910156 C 41.703125 8.671875 41.75 8.441406 41.839844 8.222656 C 41.929688 8.003906 42.0625 7.808594 42.230469 7.640625 C 42.398438 7.472656 42.589844 7.34375 42.808594 7.253906 C 43.03125 7.164062 43.257812 7.117188 43.496094 7.117188 Z M 43.496094 7.117188 " fill-opacity="1" fill-rule="nonzero"/><path fill="#231f20" d="M 49.46875 7.117188 C 49.707031 7.117188 49.933594 7.164062 50.152344 7.253906 C 50.375 7.34375 50.566406 7.472656 50.734375 7.640625 C 50.902344 7.808594 51.03125 8.003906 51.125 8.222656 C 51.214844 8.441406 51.257812 8.671875 51.257812 8.910156 L 51.257812 32.1875 C 51.257812 32.425781 51.214844 32.652344 51.125 32.875 C 51.03125 33.09375 50.902344 33.285156 50.734375 33.453125 C 50.566406 33.621094 50.375 33.75 50.152344 33.84375 C 49.933594 33.933594 49.707031 33.980469 49.46875 33.980469 C 49.230469 33.980469 49 33.933594 48.78125 33.84375 C 48.5625 33.75 48.367188 33.621094 48.199219 33.453125 C 48.03125 33.285156 47.902344 33.09375 47.8125 32.875 C 47.722656 32.652344 47.675781 32.425781 47.675781 32.1875 L 47.675781 8.910156 C 47.675781 8.671875 47.722656 8.441406 47.8125 8.222656 C 47.902344 8.003906 48.03125 7.808594 48.199219 7.640625 C 48.367188 7.472656 48.5625 7.34375 48.78125 7.253906 C 49 7.164062 49.230469 7.117188 49.46875 7.117188 Z M 49.46875 7.117188 " fill-opacity="1" fill-rule="nonzero"/><path fill="#231f20" d="M 37.523438 7.117188 C 37.761719 7.117188 37.988281 7.164062 38.207031 7.253906 C 38.429688 7.34375 38.621094 7.472656 38.789062 7.640625 C 38.957031 7.808594 39.085938 8.003906 39.179688 8.222656 C 39.269531 8.441406 39.316406 8.671875 39.316406 8.910156 L 39.316406 32.1875 C 39.316406 32.425781 39.269531 32.652344 39.179688 32.875 C 39.085938 33.09375 38.957031 33.285156 38.789062 33.453125 C 38.621094 33.621094 38.429688 33.75 38.207031 33.84375 C 37.988281 33.933594 37.761719 33.980469 37.523438 33.980469 C 37.285156 33.980469 37.058594 33.933594 36.835938 33.84375 C 36.617188 33.75 36.425781 33.621094 36.257812 33.453125 C 36.089844 33.285156 35.957031 33.09375 35.867188 32.875 C 35.777344 32.652344 35.730469 32.425781 35.730469 32.1875 L 35.730469 8.910156 C 35.730469 8.671875 35.777344 8.441406 35.867188 8.222656 C 35.957031 8.003906 36.089844 7.808594 36.257812 7.640625 C 36.425781 7.472656 36.617188 7.34375 36.835938 7.253906 C 37.058594 7.164062 37.285156 7.117188 37.523438 7.117188 Z M 37.523438 7.117188 " fill-opacity="1" fill-rule="nonzero"/></svg>