<svg xmlns="http://www.w3.org/2000/svg" xmlns:xlink="http://www.w3.org/1999/xlink" width="90" zoomAndPan="magnify" viewBox="0 0 67.5 48" height="64" preserveAspectRatio="xMidYMid meet" version="1.0"><defs><clipPath id="235b619bcc"><path d="M 0.515625 0 L 66.566406 0 L 66.566406 47.019531 L 0.515625 47.019531 Z M 0.515625 0 " clip-rule="nonzero"/></clipPath><clipPath id="f60ec61b50"><path d="M 26 16 L 39 16 L 39 32.488281 L 26 32.488281 Z M 26 16 " clip-rule="nonzero"/></clipPath><clipPath id="3ebbdab3da"><path d="M 40 14.578125 L 44 14.578125 L 44 17 L 40 17 Z M 40 14.578125 " clip-rule="nonzero"/></clipPath><clipPath id="f21b33a8df"><path d="M 44 16 L 59.878906 16 L 59.878906 23 L 44 23 Z M 44 16 " clip-rule="nonzero"/></clipPath><clipPath id="e9d72ae8a6"><path d="M 44 21 L 59.878906 21 L 59.878906 28 L 44 28 Z M 44 21 " clip-rule="nonzero"/></clipPath><clipPath id="95fe73206a"><path d="M 8 25 L 20 25 L 20 32.488281 L 8 32.488281 Z M 8 25 " clip-rule="nonzero"/></clipPath><clipPath id="5421a3e923"><path d="M 4.636719 20 L 23 20 L 23 28 L 4.636719 28 Z M 4.636719 20 " clip-rule="nonzero"/></clipPath></defs><g clip-path="url(#235b619bcc)"><path fill="#ffffff" d="M 3.855469 -0.34375 L 63.582031 -0.34375 C 63.976562 -0.34375 64.359375 -0.269531 64.722656 -0.117188 C 65.089844 0.0351562 65.414062 0.25 65.691406 0.53125 C 65.972656 0.808594 66.1875 1.132812 66.339844 1.5 C 66.492188 1.863281 66.566406 2.246094 66.566406 2.640625 L 66.566406 44.425781 C 66.566406 44.820312 66.492188 45.203125 66.339844 45.566406 C 66.1875 45.933594 65.972656 46.253906 65.691406 46.535156 C 65.414062 46.816406 65.089844 47.03125 64.722656 47.183594 C 64.359375 47.335938 63.976562 47.410156 63.582031 47.410156 L 3.855469 47.410156 C 3.460938 47.410156 3.082031 47.335938 2.714844 47.183594 C 2.347656 47.03125 2.027344 46.816406 1.746094 46.535156 C 1.464844 46.253906 1.25 45.933594 1.097656 45.566406 C 0.945312 45.203125 0.871094 44.820312 0.871094 44.425781 L 0.871094 2.640625 C 0.871094 2.246094 0.945312 1.863281 1.097656 1.5 C 1.25 1.132812 1.464844 0.808594 1.746094 0.53125 C 2.027344 0.25 2.347656 0.0351562 2.714844 -0.117188 C 3.082031 -0.269531 3.460938 -0.34375 3.855469 -0.34375 Z M 3.855469 -0.34375 " fill-opacity="1" fill-rule="nonzero"/></g><g clip-path="url(#f60ec61b50)"><path stroke-linecap="round" transform="matrix(1.493087, 0, 0, 1.492301, -71.009254, -0.343826)" fill="none" stroke-linejoin="round" d="M 65.88793 21.205248 L 65.88793 14.323571 C 65.88793 13.056652 67.01029 12.030552 68.394272 12.030552 L 70.612829 12.033169 C 71.994195 12.035787 73.108706 13.059269 73.108706 14.323571 L 73.108706 15.786811 C 73.108706 17.053731 71.988963 18.079831 70.604981 18.079831 L 67.468129 18.079831 " stroke="#939598" stroke-width="1" stroke-opacity="1" stroke-miterlimit="10"/></g><path stroke-linecap="round" transform="matrix(1.493087, 0, 0, 1.492301, -71.009254, -0.343826)" fill="none" stroke-linejoin="round" d="M 73.731367 12.030552 L 74.694137 12.030552 C 75.261858 12.030552 75.722313 12.449368 75.722313 12.970271 L 75.722313 18.111242 " stroke="#939598" stroke-width="1" stroke-opacity="1" stroke-miterlimit="10"/><g clip-path="url(#3ebbdab3da)"><path fill="#32a2bc" d="M 41.742188 16.417969 L 41.089844 15.824219 C 40.925781 15.675781 40.925781 15.433594 41.089844 15.285156 L 41.742188 14.691406 C 41.902344 14.542969 42.164062 14.542969 42.328125 14.691406 L 42.980469 15.285156 C 43.140625 15.433594 43.140625 15.675781 42.980469 15.824219 L 42.328125 16.417969 C 42.164062 16.566406 41.902344 16.566406 41.742188 16.417969 Z M 41.742188 16.417969 " fill-opacity="1" fill-rule="nonzero"/></g><g clip-path="url(#f21b33a8df)"><path stroke-linecap="round" transform="matrix(1.493087, 0, 0, 1.492301, -71.009254, -0.343826)" fill="none" stroke-linejoin="round" d="M 77.569367 12.025316 L 78.524288 12.025316 C 79.016138 12.025316 79.487058 12.203313 79.835016 12.520043 L 82.069271 14.567008 C 82.357055 14.831386 82.827975 14.831386 83.11576 14.567008 L 85.342166 12.527896 C 85.690124 12.211166 86.161044 12.033169 86.652894 12.033169 L 87.429912 12.033169 " stroke="#939598" stroke-width="1" stroke-opacity="1" stroke-miterlimit="10"/></g><g clip-path="url(#e9d72ae8a6)"><path stroke-linecap="round" transform="matrix(1.493087, 0, 0, 1.492301, -71.009254, -0.343826)" fill="none" stroke-linejoin="round" d="M 77.569367 18.066743 L 78.524288 18.066743 C 79.016138 18.066743 79.487058 17.888746 79.835016 17.569398 L 82.069271 15.525051 C 82.357055 15.260673 82.827975 15.260673 83.11576 15.525051 L 85.342166 17.561546 C 85.690124 17.880893 86.161044 18.05889 86.652894 18.05889 L 87.429912 18.05889 " stroke="#939598" stroke-width="1" stroke-opacity="1" stroke-miterlimit="10"/></g><g clip-path="url(#95fe73206a)"><path fill="#32a2bc" d="M 18.863281 28.566406 C 18.148438 28.566406 17.476562 28.308594 16.96875 27.847656 L 14.234375 25.34375 C 14.039062 25.167969 13.707031 25.167969 13.511719 25.34375 L 10.765625 27.855469 C 10.261719 28.320312 9.589844 28.574219 8.871094 28.574219 L 8.332031 28.574219 L 11.796875 31.746094 C 12.878906 32.734375 14.636719 32.734375 15.71875 31.746094 L 19.195312 28.566406 Z M 18.863281 28.566406 " fill-opacity="1" fill-rule="nonzero"/></g><path fill="#32a2bc" d="M 8.871094 19.710938 C 9.585938 19.710938 10.261719 19.96875 10.765625 20.429688 L 13.511719 22.941406 C 13.710938 23.125 14.035156 23.125 14.234375 22.941406 L 16.96875 20.4375 C 17.476562 19.976562 18.148438 19.722656 18.863281 19.722656 L 19.195312 19.722656 L 15.71875 16.542969 C 14.636719 15.554688 12.878906 15.554688 11.796875 16.542969 L 8.332031 19.710938 Z M 8.871094 19.710938 " fill-opacity="1" fill-rule="nonzero"/><g clip-path="url(#5421a3e923)"><path fill="#32a2bc" d="M 22.070312 22.351562 L 19.96875 20.429688 C 19.921875 20.445312 19.871094 20.457031 19.820312 20.457031 L 18.863281 20.457031 C 18.371094 20.457031 17.886719 20.640625 17.539062 20.960938 L 14.800781 23.460938 C 14.546875 23.695312 14.210938 23.8125 13.875 23.8125 C 13.535156 23.8125 13.199219 23.695312 12.945312 23.464844 L 10.199219 20.949219 C 9.847656 20.632812 9.367188 20.449219 8.871094 20.449219 L 7.699219 20.449219 C 7.648438 20.449219 7.601562 20.4375 7.558594 20.421875 L 5.449219 22.351562 C 4.367188 23.339844 4.367188 24.945312 5.449219 25.9375 L 7.558594 27.863281 C 7.601562 27.847656 7.648438 27.839844 7.699219 27.839844 L 8.871094 27.839844 C 9.367188 27.839844 9.847656 27.65625 10.199219 27.335938 L 12.945312 24.824219 C 13.441406 24.371094 14.304688 24.371094 14.800781 24.824219 L 17.539062 27.328125 C 17.886719 27.644531 18.371094 27.828125 18.863281 27.828125 L 19.820312 27.828125 C 19.871094 27.828125 19.921875 27.839844 19.96875 27.855469 L 22.070312 25.9375 C 23.152344 24.945312 23.152344 23.339844 22.070312 22.351562 " fill-opacity="1" fill-rule="nonzero"/></g></svg>